<?xml version="1.0" encoding="UTF-8"?>
<svg version="1.1" xmlns="http://www.w3.org/2000/svg" width="600" height="600">
<path d="M0 0 C1.54800429 -0.00374052 3.0960067 -0.00834364 4.64400613 -0.01373065 C8.88172636 -0.02592662 13.11936744 -0.0257042 17.3571012 -0.02334189 C21.93397208 -0.02293286 26.51081788 -0.0339812 31.087677 -0.04345703 C40.04910697 -0.06004981 49.01051062 -0.06556582 57.97195466 -0.06668179 C65.25946827 -0.06763317 72.54697323 -0.07174797 79.8344841 -0.07808304 C100.5122409 -0.09569149 121.18997696 -0.10492264 141.8677413 -0.10342209 C143.53886259 -0.10330222 143.53886259 -0.10330222 145.2437439 -0.10317993 C146.91691437 -0.10305729 146.91691437 -0.10305729 148.62388627 -0.10293217 C166.69362444 -0.10211959 184.76327918 -0.12125113 202.83299322 -0.14945666 C221.4028503 -0.17821328 239.97266673 -0.1919954 258.54254663 -0.19026911 C268.96163416 -0.18960613 279.38063426 -0.19505825 289.79970169 -0.21662521 C298.67223052 -0.23487367 307.54463228 -0.23915437 316.41717179 -0.22560637 C320.93957665 -0.21909493 325.46173801 -0.21889317 329.98411942 -0.23631287 C334.13334172 -0.25213004 338.2821292 -0.24909271 342.43134145 -0.2317446 C343.92325606 -0.22869358 345.41520383 -0.23223457 346.90707929 -0.24346475 C360.00814476 -0.33546225 372.36267886 1.8168211 384.05673218 8.01742554 C384.72132446 8.36104126 385.38591675 8.70465698 386.07064819 9.0586853 C391.86692833 12.15083281 396.89988517 15.82252468 401.74423218 20.26742554 C402.4996228 20.93129272 403.25501343 21.59515991 404.03329468 22.27914429 C416.93938488 34.27604256 426.91808168 52.78820685 427.93112254 70.54288983 C428.0078797 74.53700351 428.02082961 78.52861377 428.01165771 82.52319336 C428.01539823 84.07119765 428.02000135 85.61920006 428.02538836 87.16719949 C428.03758434 91.40491972 428.03736191 95.6425608 428.03499961 99.88029456 C428.03459057 104.45716544 428.04563891 109.03401124 428.05511475 113.61087036 C428.07170753 122.57230033 428.07722353 131.53370397 428.0783395 140.49514802 C428.07929088 147.78266163 428.08340568 155.07016659 428.08974075 162.35767746 C428.1073492 183.03543426 428.11658035 203.71317031 428.11507981 224.39093466 C428.11499989 225.50501552 428.11491998 226.61909637 428.11483765 227.76693726 C428.11475589 228.88238424 428.11467412 229.99783122 428.11458988 231.14707963 C428.11377731 249.2168178 428.13290885 267.28647254 428.16111438 285.35618658 C428.189871 303.92604366 428.20365311 322.49586009 428.20192683 341.06573999 C428.20126384 351.48482752 428.20671597 361.90382762 428.22828293 372.32289505 C428.24653138 381.19542388 428.25081209 390.06782564 428.23726408 398.94036515 C428.23075264 403.46277001 428.23055089 407.98493137 428.24797058 412.50731277 C428.26378775 416.65653508 428.26075042 420.80532256 428.24340232 424.95453481 C428.24035129 426.44644942 428.24389229 427.93839719 428.25512247 429.43027265 C428.34711997 442.53133812 426.19483661 454.88587222 419.99423218 466.57992554 C419.47880859 467.57681396 419.47880859 467.57681396 418.95297241 468.59384155 C415.86082491 474.39012169 412.18913303 479.42307852 407.74423218 484.26742554 C407.08036499 485.02281616 406.4164978 485.77820679 405.73251343 486.55648804 C393.73561515 499.46257824 375.22345087 509.44127504 357.46876788 510.4543159 C353.4746542 510.53107306 349.48304394 510.54402297 345.48846436 510.53485107 C343.94046006 510.53859159 342.39245766 510.54319471 340.84445822 510.54858172 C336.60673799 510.5607777 332.36909691 510.56055527 328.13136315 510.55819297 C323.55449227 510.55778393 318.97764647 510.56883227 314.40078735 510.57830811 C305.43935739 510.59490089 296.47795374 510.60041689 287.5165097 510.60153286 C280.22899608 510.60248424 272.94149113 510.60659904 265.65398026 510.61293411 C244.97622346 510.63054256 224.2984874 510.63977371 203.62072305 510.63827316 C202.5066422 510.63819325 201.39256134 510.63811334 200.24472046 510.63803101 C199.12927347 510.63794924 198.01382649 510.63786748 196.86457808 510.63778324 C178.79483992 510.63697067 160.72518517 510.65610221 142.65547113 510.68430774 C124.08561406 510.71306436 105.51579762 510.72684647 86.94591773 510.72512019 C76.52683019 510.7244572 66.10783009 510.72990933 55.68876266 510.75147629 C46.81623384 510.76972474 37.94383207 510.77400545 29.07129256 510.76045744 C24.5488877 510.753946 20.02672635 510.75374425 15.50434494 510.77116394 C11.35512264 510.78698111 7.20633515 510.78394378 3.0571229 510.76659568 C1.56520829 510.76354465 0.07326052 510.76708564 -1.41861494 510.77831583 C-14.5196804 510.87031333 -26.8742145 508.71802997 -38.56826782 502.51742554 C-39.23286011 502.17380981 -39.89745239 501.83019409 -40.58218384 501.47616577 C-46.37846398 498.38401827 -51.41142081 494.71232639 -56.25576782 490.26742554 C-57.01115845 489.60355835 -57.76654907 488.93969116 -58.54483032 488.25570679 C-71.45092052 476.25880851 -81.42961733 457.74664422 -82.44265819 439.99196124 C-82.51941534 435.99784756 -82.53236525 432.0062373 -82.52319336 428.01165771 C-82.52693388 426.46365342 -82.531537 424.91565102 -82.536924 423.36765158 C-82.54911998 419.12993135 -82.54889756 414.89229027 -82.54653525 410.65455651 C-82.54612622 406.07768563 -82.55717456 401.50083983 -82.56665039 396.92398071 C-82.58324317 387.96255075 -82.58875918 379.0011471 -82.58987515 370.03970306 C-82.59082653 362.75218944 -82.59494133 355.46468449 -82.6012764 348.17717361 C-82.61888485 327.49941682 -82.628116 306.82168076 -82.62661545 286.14391641 C-82.62653554 285.02983556 -82.62645562 283.9157547 -82.62637329 282.76791382 C-82.62629153 281.65246683 -82.62620977 280.53701985 -82.62612553 279.38777144 C-82.62531295 261.31803328 -82.64444449 243.24837853 -82.67265002 225.17866449 C-82.70140664 206.60880741 -82.71518876 188.03899098 -82.71346247 169.46911108 C-82.71279949 159.05002355 -82.71825161 148.63102345 -82.73981857 138.21195602 C-82.75806703 129.3394272 -82.76234773 120.46702543 -82.74879973 111.59448592 C-82.74228829 107.07208106 -82.74208653 102.54991971 -82.75950623 98.0275383 C-82.77532339 93.878316 -82.77228607 89.72952851 -82.75493796 85.58031626 C-82.75188694 84.08840165 -82.75542793 82.59645388 -82.76665811 81.10457842 C-82.85865561 68.00351296 -80.70637226 55.64897886 -74.50576782 43.95492554 C-74.1621521 43.29033325 -73.81853638 42.62574097 -73.46450806 41.94100952 C-70.37236055 36.14472938 -66.70066868 31.11177255 -62.25576782 26.26742554 C-61.59190063 25.51203491 -60.92803345 24.75664429 -60.24404907 23.97836304 C-44.28214665 6.80677854 -22.92553911 -0.05263899 0 0 Z " fill="#CFAF05" transform="translate(127.25576782226563,44.732574462890625)"/>
<path d="M0 0 C1.64267542 1.54390696 3.26795281 3.10654124 4.875 4.6875 C5.6484375 5.44804687 6.421875 6.20859375 7.21875 6.9921875 C18.24424709 18.50854576 27.05589605 34.57845559 27.875 50.6875 C29.00550781 50.80480469 30.13601563 50.92210937 31.30078125 51.04296875 C36.00841945 51.63492237 40.49413751 52.74015821 45.0625 54 C45.84302734 54.20044922 46.62355469 54.40089844 47.42773438 54.60742188 C53.23651065 56.19879994 57.16852502 58.21605348 60.6875 63.3125 C62.55530705 68.62100424 62.97154663 73.5938612 61.06640625 78.96875 C57.96469013 84.7214138 53.97681263 86.83294637 47.875 88.6875 C33.78571429 92.6875 33.78571429 92.6875 28.875 92.6875 C28.88547363 93.42572998 28.89594727 94.16395996 28.90673828 94.92456055 C29.51571659 144.64879558 18.52190107 183.81033434 -16.125 220.6875 C-16.69734375 221.32558594 -17.2696875 221.96367187 -17.859375 222.62109375 C-31.48452129 237.26461437 -51.30600117 248.41450039 -70.125 254.6875 C-70.13086624 255.25046783 -70.13673248 255.81343567 -70.14277649 256.39346313 C-70.206837 262.26637936 -70.29128904 268.138754 -70.38745117 274.01123047 C-70.4206531 276.20126188 -70.4486997 278.39137789 -70.47143555 280.58154297 C-70.50506809 283.7344153 -70.55738948 286.88651573 -70.61328125 290.0390625 C-70.61967117 291.01428864 -70.6260611 291.98951477 -70.63264465 292.99429321 C-70.77921281 299.81025319 -71.95476488 304.10667985 -76.4375 309.4375 C-80.29472219 312.6668023 -83.53071559 313.4468533 -88.4375 314.1875 C-93.58447083 313.48960565 -97.35313826 311.24006745 -101.125 307.6875 C-104.36233978 302.55495219 -104.52839946 298.43359048 -104.41796875 292.5703125 C-104.41372391 291.71315643 -104.40947906 290.85600037 -104.40510559 289.97286987 C-104.38839886 287.25241836 -104.35076219 284.53272518 -104.3125 281.8125 C-104.29744278 279.96094825 -104.2837562 278.10938481 -104.27148438 276.2578125 C-104.23852165 271.73408567 -104.18679537 267.21092113 -104.125 262.6875 C-104.85493164 262.7589624 -105.58486328 262.8304248 -106.33691406 262.90405273 C-113.53960045 263.56339683 -120.64511468 263.81385089 -127.875 263.75 C-128.87015625 263.74548828 -129.8653125 263.74097656 -130.890625 263.73632812 C-133.30215127 263.72473425 -135.7135398 263.70842164 -138.125 263.6875 C-138.10405273 264.8019751 -138.08310547 265.9164502 -138.06152344 267.06469727 C-137.98880593 271.22244279 -137.94308554 275.38013273 -137.90527344 279.53833008 C-137.88522999 281.33367382 -137.85798749 283.12895287 -137.82324219 284.92407227 C-137.77440151 287.5133465 -137.7519588 290.1017534 -137.734375 292.69140625 C-137.71372986 293.48648087 -137.69308472 294.28155548 -137.67181396 295.10072327 C-137.66956147 300.76886037 -138.89899827 304.0089313 -142.125 308.6875 C-143.9765625 310.2109375 -143.9765625 310.2109375 -145.75 311.0625 C-147.54652016 311.92749119 -149.34158879 312.79579439 -151.125 313.6875 C-156.38806808 314.09235139 -159.69915175 313.6066765 -164.125 310.6875 C-168.46552463 306.39768243 -171.04660146 303.2682451 -171.23852539 296.95043945 C-171.23836731 295.40054437 -171.23273287 293.85064359 -171.22265625 292.30078125 C-171.22053383 291.07526802 -171.22053383 291.07526802 -171.21836853 289.82499695 C-171.21277294 287.21662732 -171.20022129 284.60834366 -171.1875 282 C-171.18248443 280.23112103 -171.17792162 278.46224072 -171.17382812 276.69335938 C-171.16280496 272.35803981 -171.14554338 268.02278448 -171.125 263.6875 C-181.96540416 263.35316277 -192.80213039 263.12941842 -203.64750099 263.04240799 C-208.6855797 262.9986056 -213.71730721 262.91839099 -218.75292969 262.75146484 C-239.69054693 261.10421489 -239.69054693 261.10421489 -259.25769043 266.59155273 C-263.94392717 271.0786576 -266.56344086 276.14102238 -268.94720459 282.1060791 C-271.37408323 287.42516524 -275.179431 293.12849589 -280.5625 295.75 C-286.15386335 297.22141141 -290.625966 297.75910761 -295.875 295 C-299.58606931 292.35943145 -302.0877273 289.7620454 -304.125 285.6875 C-304.36328125 283.5859375 -304.36328125 283.5859375 -304.4375 281.0625 C-304.47488281 280.24523437 -304.51226562 279.42796875 -304.55078125 278.5859375 C-303.4989148 271.42552553 -298.78455948 265.47789568 -294.625 259.75 C-293.54676216 258.24357034 -292.46864027 256.73705769 -291.390625 255.23046875 C-290.57174805 254.09230713 -290.57174805 254.09230713 -289.73632812 252.93115234 C-287.26370723 249.48821507 -284.81843714 246.02618223 -282.375 242.5625 C-281.88950684 241.87526855 -281.40401367 241.18803711 -280.90380859 240.47998047 C-275.96771699 233.48388274 -271.08310431 226.45213631 -266.19726562 219.42089844 C-257.06747521 206.28322576 -247.89307576 193.17740005 -238.65869141 180.11303711 C-233.04875324 172.17226132 -227.47872936 164.20360613 -221.90722656 156.23583984 C-218.98123267 152.0520694 -216.0530169 147.86985476 -213.125 143.6875 C-211.95832241 142.02084098 -210.79165575 140.35417431 -209.625 138.6875 C-188.625 108.6875 -188.625 108.6875 -186.87426758 106.18652344 C-185.70995489 104.52317317 -184.54572935 102.85976191 -183.3815918 101.19628906 C-180.42962804 96.97837191 -177.47606366 92.76159128 -174.51953125 88.546875 C-173.32539428 86.84383873 -172.13138301 85.14071431 -170.9375 83.4375 C-170.06073608 82.18670654 -170.06073608 82.18670654 -169.16625977 80.91064453 C-165.60005804 75.81578414 -162.07009579 70.69782042 -158.5625 65.5625 C-154.14340298 59.0971176 -149.57651833 52.74736315 -144.97167969 46.41333008 C-141.34260085 41.40902705 -137.79840749 36.35493142 -134.3125 31.25 C-117.70347613 6.98437588 -100.85243233 -12.3152535 -71.125 -19.3125 C-45.73284641 -24.04663033 -19.4143605 -16.93910409 0 0 Z " fill="#F8FAFB" transform="translate(421.125,153.3125)"/>
<path d="M0 0 C11.35241653 9.12941482 16.98623695 19.4507418 20.0546875 33.65234375 C20.54559889 38.45516418 20.57182331 43.19502258 20.515625 48.01953125 C20.51470856 49.33792999 20.51379211 50.65632874 20.5128479 52.01467896 C20.50975171 54.78295611 20.49344293 57.55070374 20.46630859 60.31884766 C20.43239613 63.81731393 20.42486038 67.31520648 20.42593384 70.81381702 C20.42307363 109.7428256 13.35159503 144.17373788 -14.0703125 173.21484375 C-25.04092471 183.70344313 -37.19742639 191.38671424 -50.9453125 197.65234375 C-51.739375 198.0596875 -52.5334375 198.46703125 -53.3515625 198.88671875 C-60.70938662 202.56563081 -68.95492313 203.94355566 -76.9453125 205.65234375 C-77.76902344 205.8534375 -78.59273438 206.05453125 -79.44140625 206.26171875 C-83.04341696 206.8236549 -86.62349474 206.75706549 -90.2578125 206.71484375 C-90.99837891 206.71033203 -91.73894531 206.70582031 -92.50195312 206.70117188 C-94.31644149 206.6894655 -96.13088784 206.67153273 -97.9453125 206.65234375 C-97.1615625 205.78609375 -96.3778125 204.91984375 -95.5703125 204.02734375 C-83.89850402 190.31847436 -74.44013913 174.86034175 -68.9453125 157.65234375 C-68.55214844 156.43546875 -68.15898437 155.21859375 -67.75390625 153.96484375 C-64.86929684 143.89259611 -64.54819685 133.80754355 -64.5078125 123.40234375 C-64.4985524 122.39003189 -64.4985524 122.39003189 -64.48910522 121.35726929 C-64.43264927 111.75435964 -65.54352281 102.94448899 -67.9453125 93.65234375 C-68.12795654 92.92837402 -68.31060059 92.2044043 -68.4987793 91.45849609 C-72.85505752 75.30074443 -81.2651491 59.82367823 -92.79296875 47.7109375 C-93.9453125 45.65234375 -93.9453125 45.65234375 -93.4453125 43.3671875 C-91.4864498 39.82185006 -89.27493795 36.52561684 -86.9453125 33.21484375 C-86.45691895 32.51472168 -85.96852539 31.81459961 -85.46533203 31.09326172 C-84.45487929 29.64756714 -83.44200743 28.20356045 -82.42675781 26.76123047 C-81.0456844 24.79522649 -79.67762455 22.82084484 -78.3125 20.84375 C-68.64126184 6.92205911 -58.78583136 -5.53705129 -41.27929688 -8.99462891 C-26.16880996 -11.28016908 -12.58297787 -9.05697857 0 0 Z " fill="#CFAF06" transform="translate(396.9453125,176.34765625)"/>
<path d="M0 0 C4.39483646 3.03670991 6.71160934 6.39712029 9 11.125 C9.3403125 11.82802246 9.680625 12.53104492 10.03125 13.25537109 C20.14702715 34.96693255 20.65101126 56.66236228 12.90234375 79.19140625 C4.36542278 101.38740076 -11.4958619 117.2854113 -33 127 C-34.175625 127.556875 -35.35125 128.11375 -36.5625 128.6875 C-37.696875 129.120625 -38.83125 129.55375 -40 130 C-40.6590332 130.25668457 -41.31806641 130.51336914 -41.99707031 130.77783203 C-51.82305247 134.03111009 -61.97220518 133.32709879 -72.1875 133.1875 C-74.11261974 133.17242581 -76.03775089 133.15874225 -77.96289062 133.14648438 C-82.64221284 133.11369566 -87.32097826 133.06206443 -92 133 C-90.7473218 129.60763799 -89.32892465 126.78378804 -87.234375 123.83984375 C-86.68136719 123.05673828 -86.12835938 122.27363281 -85.55859375 121.46679688 C-84.66333984 120.21479492 -84.66333984 120.21479492 -83.75 118.9375 C-82.47382486 117.13420904 -81.19778697 115.33082093 -79.921875 113.52734375 C-78.94250977 112.14844971 -78.94250977 112.14844971 -77.94335938 110.74169922 C-74.94258391 106.50819313 -71.97195178 102.25376385 -69 98 C-67.83349744 96.33321847 -66.66683026 94.66655214 -65.5 93 C-64.9225 92.175 -64.345 91.35 -63.75 90.5 C-47.125 66.75 -47.125 66.75 -30.5 43 C-29.92185547 42.1740332 -29.34371094 41.34806641 -28.74804688 40.49707031 C-27.58806559 38.84004677 -26.42791096 37.18314457 -25.26757812 35.52636719 C-22.2471502 31.21316892 -19.23028209 26.89754012 -16.21875 22.578125 C-15.28482422 21.24007813 -15.28482422 21.24007813 -14.33203125 19.875 C-13.15121251 18.18308061 -11.971444 16.49042753 -10.79296875 14.796875 C-7.29433591 9.78689957 -3.69993322 4.86324555 0 0 Z " fill="#CFAF06" transform="translate(282,250)"/>
<path d="M0 0 C3.83084349 2.61193874 6.65161815 5.67823629 8.75 9.875 C9.47218508 17.01397709 9.19960235 22.13735486 4.75 27.875 C0.96914991 31.56132884 -2.13128869 32.1786138 -7.25 32.375 C-12.39321604 32.17156006 -15.4536919 31.57871522 -19.25 27.875 C-23.10269211 23.32368638 -25.11613144 19.14838111 -24.73046875 13.11328125 C-23.56917492 7.70335145 -20.60253115 3.43262559 -16 0.375 C-10.70488636 -2.22064394 -5.46265549 -1.89091921 0 0 Z " fill="#F8F9F9" transform="translate(374.25,201.125)"/>
</svg>
